<mxfile host="app.diagrams.net" modified="2022-12-09T18:41:46.053Z" agent="5.0 (Windows NT 10.0; Win64; x64) AppleWebKit/537.36 (KHTML, like Gecko) Chrome/108.0.0.0 Safari/537.36" etag="zX2Dk4JQ2VHnpLDqumN-" version="20.6.1" type="github">
  <diagram id="6a731a19-8d31-9384-78a2-239565b7b9f0" name="Page-1">
    <mxGraphModel dx="833" dy="1116" grid="1" gridSize="10" guides="1" tooltips="1" connect="1" arrows="1" fold="1" page="1" pageScale="1" pageWidth="827" pageHeight="1169" background="none" math="0" shadow="0">
      <root>
        <mxCell id="0" />
        <mxCell id="1" parent="0" />
        <mxCell id="FBBcUjEUcP34U0jMtz23-2259" value="" style="whiteSpace=wrap;html=1;aspect=fixed;" parent="1" vertex="1">
          <mxGeometry x="890" y="370" width="910" height="910" as="geometry" />
        </mxCell>
        <mxCell id="2109" value="Internet" style="shape=mxgraph.cisco.storage.cloud;html=1;dashed=0;strokeColor=#23445D;fillColor=#ffffff;strokeWidth=2;fontFamily=Helvetica;fontSize=24;fontColor=#23445D;align=center;fontStyle=1" parent="1" vertex="1">
          <mxGeometry x="1030" y="250" width="230" height="120" as="geometry" />
        </mxCell>
        <mxCell id="2138" value="" style="shape=mxgraph.cisco.routers.router;html=1;dashed=0;fillColor=#10739E;strokeColor=#ffffff;strokeWidth=2;verticalLabelPosition=bottom;verticalAlign=top;fontFamily=Helvetica;fontSize=36;fontColor=#FFB366" parent="1" vertex="1">
          <mxGeometry x="1370" y="460" width="78" height="53" as="geometry" />
        </mxCell>
        <mxCell id="FBBcUjEUcP34U0jMtz23-2260" value="&lt;font style=&quot;font-size: 42px;&quot;&gt;Офис&lt;/font&gt;" style="text;html=1;strokeColor=none;fillColor=none;align=center;verticalAlign=middle;whiteSpace=wrap;rounded=0;" parent="1" vertex="1">
          <mxGeometry x="930" y="420" width="270" height="50" as="geometry" />
        </mxCell>
        <mxCell id="FBBcUjEUcP34U0jMtz23-2261" value="&lt;p style=&quot;line-height: 40%;&quot;&gt;&lt;font style=&quot;font-size: 17px;&quot;&gt;FTP-сервер&lt;br&gt;БД&lt;/font&gt;&lt;/p&gt;" style="text;html=1;strokeColor=none;fillColor=none;align=center;verticalAlign=middle;whiteSpace=wrap;rounded=0;fontSize=42;" parent="1" vertex="1">
          <mxGeometry x="1150" y="1050" width="120" height="67" as="geometry" />
        </mxCell>
        <mxCell id="FBBcUjEUcP34U0jMtz23-2262" value="" style="shape=mxgraph.cisco.servers.storage_server;sketch=0;html=1;pointerEvents=1;dashed=0;fillColor=#036897;strokeColor=#ffffff;strokeWidth=2;verticalLabelPosition=bottom;verticalAlign=top;align=center;outlineConnect=0;fontSize=17;" parent="1" vertex="1">
          <mxGeometry x="1150" y="923.5" width="100" height="143" as="geometry" />
        </mxCell>
        <mxCell id="FBBcUjEUcP34U0jMtz23-2263" value="" style="line;strokeWidth=2;direction=south;html=1;fontSize=17;rotation=-60;" parent="1" vertex="1">
          <mxGeometry x="1320" y="303" width="10" height="210" as="geometry" />
        </mxCell>
        <mxCell id="FBBcUjEUcP34U0jMtz23-2264" value="" style="shape=mxgraph.cisco.computers_and_peripherals.pc;sketch=0;html=1;pointerEvents=1;dashed=0;fillColor=#036897;strokeColor=#ffffff;strokeWidth=2;verticalLabelPosition=bottom;verticalAlign=top;align=center;outlineConnect=0;fontSize=17;" parent="1" vertex="1">
          <mxGeometry x="980" y="480" width="78" height="70" as="geometry" />
        </mxCell>
        <mxCell id="FBBcUjEUcP34U0jMtz23-2265" value="Работник 1&lt;br&gt;Vlan1" style="text;html=1;strokeColor=none;fillColor=none;align=center;verticalAlign=middle;whiteSpace=wrap;rounded=0;fontSize=17;" parent="1" vertex="1">
          <mxGeometry x="970" y="555" width="90" height="30" as="geometry" />
        </mxCell>
        <mxCell id="FBBcUjEUcP34U0jMtz23-2269" value="1" style="text;html=1;strokeColor=none;fillColor=none;align=center;verticalAlign=middle;whiteSpace=wrap;rounded=0;fontSize=17;" parent="1" vertex="1">
          <mxGeometry x="1160" y="555" width="60" height="30" as="geometry" />
        </mxCell>
        <mxCell id="FBBcUjEUcP34U0jMtz23-2270" value="Access Gateway" style="text;html=1;strokeColor=none;fillColor=none;align=center;verticalAlign=middle;whiteSpace=wrap;rounded=0;fontSize=17;" parent="1" vertex="1">
          <mxGeometry x="1090" y="710" width="60" height="30" as="geometry" />
        </mxCell>
        <mxCell id="FBBcUjEUcP34U0jMtz23-2271" value="Radius Server (AAA)" style="text;html=1;strokeColor=none;fillColor=none;align=center;verticalAlign=middle;whiteSpace=wrap;rounded=0;fontSize=17;" parent="1" vertex="1">
          <mxGeometry x="960" y="980" width="60" height="30" as="geometry" />
        </mxCell>
        <mxCell id="FBBcUjEUcP34U0jMtz23-2273" value="" style="shape=mxgraph.cisco.servers.fileserver;sketch=0;html=1;pointerEvents=1;dashed=0;fillColor=#036897;strokeColor=#ffffff;strokeWidth=2;verticalLabelPosition=bottom;verticalAlign=top;align=center;outlineConnect=0;fontSize=17;" parent="1" vertex="1">
          <mxGeometry x="970" y="860" width="50" height="100" as="geometry" />
        </mxCell>
        <mxCell id="FBBcUjEUcP34U0jMtz23-2274" value="" style="shape=mxgraph.cisco.computers_and_peripherals.pc;sketch=0;html=1;pointerEvents=1;dashed=0;fillColor=#036897;strokeColor=#ffffff;strokeWidth=2;verticalLabelPosition=bottom;verticalAlign=top;align=center;outlineConnect=0;fontSize=17;" parent="1" vertex="1">
          <mxGeometry x="1560" y="960" width="78" height="70" as="geometry" />
        </mxCell>
        <mxCell id="FBBcUjEUcP34U0jMtz23-2275" value="Работник 2&lt;br&gt;Vlan1" style="text;html=1;strokeColor=none;fillColor=none;align=center;verticalAlign=middle;whiteSpace=wrap;rounded=0;fontSize=17;" parent="1" vertex="1">
          <mxGeometry x="1553.5" y="1036.5" width="91" height="30" as="geometry" />
        </mxCell>
        <mxCell id="FBBcUjEUcP34U0jMtz23-2277" value="" style="line;strokeWidth=2;direction=south;html=1;fontSize=17;rotation=-90;" parent="1" vertex="1">
          <mxGeometry x="1076" y="480" width="60" height="100" as="geometry" />
        </mxCell>
        <mxCell id="FBBcUjEUcP34U0jMtz23-2278" value="" style="line;strokeWidth=2;direction=south;html=1;fontSize=17;rotation=0;" parent="1" vertex="1">
          <mxGeometry x="1111" y="745" width="10" height="55" as="geometry" />
        </mxCell>
        <mxCell id="FBBcUjEUcP34U0jMtz23-2279" value="" style="line;strokeWidth=2;direction=south;html=1;fontSize=17;rotation=-90;" parent="1" vertex="1">
          <mxGeometry x="1224.75" y="556.25" width="10" height="487.5" as="geometry" />
        </mxCell>
        <mxCell id="FBBcUjEUcP34U0jMtz23-2280" value="" style="line;strokeWidth=2;direction=south;html=1;fontSize=17;rotation=0;" parent="1" vertex="1">
          <mxGeometry x="980" y="800" width="10" height="50" as="geometry" />
        </mxCell>
        <mxCell id="FBBcUjEUcP34U0jMtz23-2281" value="" style="line;strokeWidth=2;direction=south;html=1;fontSize=17;rotation=0;" parent="1" vertex="1">
          <mxGeometry x="1220" y="800" width="10" height="125" as="geometry" />
        </mxCell>
        <mxCell id="FBBcUjEUcP34U0jMtz23-2282" value="" style="shape=mxgraph.cisco.routers.router;html=1;dashed=0;fillColor=#10739E;strokeColor=#ffffff;strokeWidth=2;verticalLabelPosition=bottom;verticalAlign=top;fontFamily=Helvetica;fontSize=36;fontColor=#FFB366" parent="1" vertex="1">
          <mxGeometry x="1077" y="650" width="78" height="53" as="geometry" />
        </mxCell>
        <mxCell id="FBBcUjEUcP34U0jMtz23-2286" value="" style="shape=mxgraph.cisco.switches.workgroup_switch;sketch=0;html=1;pointerEvents=1;dashed=0;fillColor=#036897;strokeColor=#ffffff;strokeWidth=2;verticalLabelPosition=bottom;verticalAlign=top;align=center;outlineConnect=0;fontSize=17;" parent="1" vertex="1">
          <mxGeometry x="1149" y="505" width="101" height="50" as="geometry" />
        </mxCell>
        <mxCell id="FBBcUjEUcP34U0jMtz23-2287" value="" style="shape=mxgraph.cisco.switches.workgroup_switch;sketch=0;html=1;pointerEvents=1;dashed=0;fillColor=#036897;strokeColor=#ffffff;strokeWidth=2;verticalLabelPosition=bottom;verticalAlign=top;align=center;outlineConnect=0;fontSize=17;" parent="1" vertex="1">
          <mxGeometry x="1543.5" y="745" width="101" height="50" as="geometry" />
        </mxCell>
        <mxCell id="FBBcUjEUcP34U0jMtz23-2288" value="" style="line;strokeWidth=2;direction=south;html=1;fontSize=17;rotation=0;" parent="1" vertex="1">
          <mxGeometry x="1589" y="820" width="10" height="135" as="geometry" />
        </mxCell>
        <mxCell id="FBBcUjEUcP34U0jMtz23-2290" value="2" style="text;html=1;strokeColor=none;fillColor=none;align=center;verticalAlign=middle;whiteSpace=wrap;rounded=0;fontSize=17;" parent="1" vertex="1">
          <mxGeometry x="1564" y="795" width="60" height="30" as="geometry" />
        </mxCell>
        <mxCell id="FBBcUjEUcP34U0jMtz23-2291" value="" style="line;strokeWidth=2;direction=south;html=1;fontSize=17;rotation=-75;" parent="1" vertex="1">
          <mxGeometry x="1334.92" y="517.96" width="10" height="414.08" as="geometry" />
        </mxCell>
        <mxCell id="FBBcUjEUcP34U0jMtz23-2292" value="" style="line;strokeWidth=2;direction=south;html=1;fontSize=17;rotation=30;" parent="1" vertex="1">
          <mxGeometry x="1142.5" y="549.33" width="10" height="110" as="geometry" />
        </mxCell>
        <mxCell id="FBBcUjEUcP34U0jMtz23-2293" value="" style="line;strokeWidth=2;direction=south;html=1;fontSize=17;rotation=-125;" parent="1" vertex="1">
          <mxGeometry x="1260" y="454" width="10" height="260.81" as="geometry" />
        </mxCell>
        <mxCell id="FBBcUjEUcP34U0jMtz23-2294" value="" style="shape=mxgraph.cisco.people.androgenous_person;sketch=0;html=1;pointerEvents=1;dashed=0;fillColor=#036897;strokeColor=#ffffff;strokeWidth=2;verticalLabelPosition=bottom;verticalAlign=top;align=center;outlineConnect=0;fontSize=17;" parent="1" vertex="1">
          <mxGeometry x="1530" y="505" width="69" height="82" as="geometry" />
        </mxCell>
        <mxCell id="FBBcUjEUcP34U0jMtz23-2295" value="Администратор БД&lt;br&gt;Vlan2" style="text;html=1;strokeColor=none;fillColor=none;align=center;verticalAlign=middle;whiteSpace=wrap;rounded=0;fontSize=17;" parent="1" vertex="1">
          <mxGeometry x="1539" y="600" width="60" height="30" as="geometry" />
        </mxCell>
        <mxCell id="FBBcUjEUcP34U0jMtz23-2296" value="" style="shape=mxgraph.cisco.switches.workgroup_switch;sketch=0;html=1;pointerEvents=1;dashed=0;fillColor=#036897;strokeColor=#ffffff;strokeWidth=2;verticalLabelPosition=bottom;verticalAlign=top;align=center;outlineConnect=0;fontSize=17;" parent="1" vertex="1">
          <mxGeometry x="1340" y="600" width="101" height="50" as="geometry" />
        </mxCell>
        <mxCell id="FBBcUjEUcP34U0jMtz23-2297" value="" style="line;strokeWidth=2;direction=south;html=1;fontSize=17;rotation=75;" parent="1" vertex="1">
          <mxGeometry x="1483.71" y="535.17" width="20" height="110" as="geometry" />
        </mxCell>
        <mxCell id="FBBcUjEUcP34U0jMtz23-2298" value="" style="line;strokeWidth=2;direction=south;html=1;fontSize=17;rotation=80;" parent="1" vertex="1">
          <mxGeometry x="1239.39" y="563.05" width="10" height="190" as="geometry" />
        </mxCell>
        <mxCell id="FBBcUjEUcP34U0jMtz23-2300" value="3" style="text;html=1;strokeColor=none;fillColor=none;align=center;verticalAlign=middle;whiteSpace=wrap;rounded=0;fontSize=17;" parent="1" vertex="1">
          <mxGeometry x="1350" y="645.17" width="60" height="30" as="geometry" />
        </mxCell>
        <mxCell id="FBBcUjEUcP34U0jMtz23-2301" value="" style="shape=mxgraph.cisco.people.pc_man;sketch=0;html=1;pointerEvents=1;dashed=0;fillColor=#036897;strokeColor=#ffffff;strokeWidth=2;verticalLabelPosition=bottom;verticalAlign=top;align=center;outlineConnect=0;fontSize=17;" parent="1" vertex="1">
          <mxGeometry x="1420" y="210" width="104" height="149" as="geometry" />
        </mxCell>
        <mxCell id="FBBcUjEUcP34U0jMtz23-2302" value="Заёмщик" style="text;html=1;strokeColor=none;fillColor=none;align=center;verticalAlign=middle;whiteSpace=wrap;rounded=0;fontSize=17;" parent="1" vertex="1">
          <mxGeometry x="1423.71" y="350" width="60" height="30" as="geometry" />
        </mxCell>
        <mxCell id="FBBcUjEUcP34U0jMtz23-2304" value="" style="line;strokeWidth=2;direction=south;html=1;fontSize=17;rotation=80;" parent="1" vertex="1">
          <mxGeometry x="1334.92" y="224.13" width="10" height="160" as="geometry" />
        </mxCell>
        <mxCell id="FBBcUjEUcP34U0jMtz23-2306" value="&lt;p style=&quot;line-height: 40%;&quot;&gt;&lt;font style=&quot;font-size: 17px;&quot;&gt;Web-сервер&lt;/font&gt;&lt;/p&gt;" style="text;html=1;strokeColor=none;fillColor=none;align=center;verticalAlign=middle;whiteSpace=wrap;rounded=0;fontSize=42;" parent="1" vertex="1">
          <mxGeometry x="1290" y="1018" width="120" height="67" as="geometry" />
        </mxCell>
        <mxCell id="FBBcUjEUcP34U0jMtz23-2307" value="" style="line;strokeWidth=2;direction=south;html=1;fontSize=17;rotation=0;" parent="1" vertex="1">
          <mxGeometry x="1350" y="800" width="10" height="125" as="geometry" />
        </mxCell>
        <mxCell id="FBBcUjEUcP34U0jMtz23-2308" value="" style="shape=mxgraph.cisco.storage.cisco_file_engine;sketch=0;html=1;pointerEvents=1;dashed=0;fillColor=#036897;strokeColor=#ffffff;strokeWidth=2;verticalLabelPosition=bottom;verticalAlign=top;align=center;outlineConnect=0;fontSize=17;" parent="1" vertex="1">
          <mxGeometry x="1302" y="1130" width="90" height="64" as="geometry" />
        </mxCell>
        <mxCell id="FBBcUjEUcP34U0jMtz23-2309" value="&lt;p style=&quot;line-height: 40%;&quot;&gt;&lt;span style=&quot;font-size: 17px;&quot;&gt;Хранилище резервных копий&lt;/span&gt;&lt;/p&gt;" style="text;html=1;strokeColor=none;fillColor=none;align=center;verticalAlign=middle;whiteSpace=wrap;rounded=0;fontSize=42;" parent="1" vertex="1">
          <mxGeometry x="1290" y="1200" width="120" height="67" as="geometry" />
        </mxCell>
        <mxCell id="FBBcUjEUcP34U0jMtz23-2310" value="" style="shape=mxgraph.cisco.servers.www_server;sketch=0;html=1;pointerEvents=1;dashed=0;fillColor=#036897;strokeColor=#ffffff;strokeWidth=2;verticalLabelPosition=bottom;verticalAlign=top;align=center;outlineConnect=0;fontSize=17;" parent="1" vertex="1">
          <mxGeometry x="1302" y="930.5" width="96" height="106" as="geometry" />
        </mxCell>
        <mxCell id="FBBcUjEUcP34U0jMtz23-2311" value="" style="shape=mxgraph.cisco.servers.file_server;sketch=0;html=1;pointerEvents=1;dashed=0;fillColor=#036897;strokeColor=#ffffff;strokeWidth=2;verticalLabelPosition=bottom;verticalAlign=top;align=center;outlineConnect=0;fontSize=17;" parent="1" vertex="1">
          <mxGeometry x="1433.71" y="930.5" width="70" height="105" as="geometry" />
        </mxCell>
        <mxCell id="FBBcUjEUcP34U0jMtz23-2312" value="&lt;p style=&quot;line-height: 40%;&quot;&gt;&lt;font style=&quot;font-size: 17px;&quot;&gt;Сервер бухгалтерского учёта 1С&lt;/font&gt;&lt;/p&gt;" style="text;html=1;strokeColor=none;fillColor=none;align=center;verticalAlign=middle;whiteSpace=wrap;rounded=0;fontSize=42;" parent="1" vertex="1">
          <mxGeometry x="1410" y="1036.5" width="120" height="67" as="geometry" />
        </mxCell>
        <mxCell id="FBBcUjEUcP34U0jMtz23-2313" value="" style="line;strokeWidth=2;direction=south;html=1;fontSize=17;rotation=0;" parent="1" vertex="1">
          <mxGeometry x="1468" y="800" width="10" height="125" as="geometry" />
        </mxCell>
        <mxCell id="FBBcUjEUcP34U0jMtz23-2318" value="" style="endArrow=classic;html=1;rounded=0;fontSize=17;exitX=0.08;exitY=0.08;exitDx=0;exitDy=0;exitPerimeter=0;entryX=0.9;entryY=0.94;entryDx=0;entryDy=0;entryPerimeter=0;" parent="1" source="FBBcUjEUcP34U0jMtz23-2308" target="FBBcUjEUcP34U0jMtz23-2262" edge="1">
          <mxGeometry width="50" height="50" relative="1" as="geometry">
            <mxPoint x="1220" y="960" as="sourcePoint" />
            <mxPoint x="1270" y="910" as="targetPoint" />
          </mxGeometry>
        </mxCell>
        <mxCell id="FBBcUjEUcP34U0jMtz23-2319" value="" style="endArrow=classic;html=1;rounded=0;fontSize=17;" parent="1" source="FBBcUjEUcP34U0jMtz23-2262" target="FBBcUjEUcP34U0jMtz23-2308" edge="1">
          <mxGeometry width="50" height="50" relative="1" as="geometry">
            <mxPoint x="1319.2000000000003" y="1145.12" as="sourcePoint" />
            <mxPoint x="1249.9999999999998" y="1067.92" as="targetPoint" />
          </mxGeometry>
        </mxCell>
        <mxCell id="FBBcUjEUcP34U0jMtz23-2321" value="" style="endArrow=classic;html=1;rounded=0;fontSize=17;exitX=1;exitY=0;exitDx=0;exitDy=0;exitPerimeter=0;entryX=0.25;entryY=0;entryDx=0;entryDy=0;" parent="1" source="FBBcUjEUcP34U0jMtz23-2308" target="FBBcUjEUcP34U0jMtz23-2312" edge="1">
          <mxGeometry width="50" height="50" relative="1" as="geometry">
            <mxPoint x="1220" y="960" as="sourcePoint" />
            <mxPoint x="1270" y="910" as="targetPoint" />
          </mxGeometry>
        </mxCell>
        <mxCell id="FBBcUjEUcP34U0jMtz23-2322" value="" style="endArrow=classic;html=1;rounded=0;fontSize=17;exitX=0.163;exitY=-0.034;exitDx=0;exitDy=0;exitPerimeter=0;" parent="1" source="FBBcUjEUcP34U0jMtz23-2312" target="FBBcUjEUcP34U0jMtz23-2308" edge="1">
          <mxGeometry width="50" height="50" relative="1" as="geometry">
            <mxPoint x="1220" y="960" as="sourcePoint" />
            <mxPoint x="1380" y="1120" as="targetPoint" />
          </mxGeometry>
        </mxCell>
        <mxCell id="TevSWxWTR0fjXybaBGyr-2138" value="" style="shape=mxgraph.cisco.security.firewall;sketch=0;html=1;pointerEvents=1;dashed=0;fillColor=#036897;strokeColor=#ffffff;strokeWidth=2;verticalLabelPosition=bottom;verticalAlign=top;align=center;outlineConnect=0;" vertex="1" parent="1">
          <mxGeometry x="1330" y="380.6699999999999" width="54" height="73.33" as="geometry" />
        </mxCell>
        <mxCell id="TevSWxWTR0fjXybaBGyr-2139" value="" style="shape=mxgraph.cisco.routers.router;html=1;dashed=0;fillColor=#10739E;strokeColor=#ffffff;strokeWidth=2;verticalLabelPosition=bottom;verticalAlign=top;fontFamily=Helvetica;fontSize=36;fontColor=#FFB366" vertex="1" parent="1">
          <mxGeometry x="1614" y="390.83" width="78" height="53" as="geometry" />
        </mxCell>
        <mxCell id="TevSWxWTR0fjXybaBGyr-2140" value="Гостевая сеть&lt;br&gt;Vlan3" style="text;html=1;strokeColor=none;fillColor=none;align=center;verticalAlign=middle;whiteSpace=wrap;rounded=0;fontSize=17;" vertex="1" parent="1">
          <mxGeometry x="1608" y="460" width="90" height="30" as="geometry" />
        </mxCell>
        <mxCell id="TevSWxWTR0fjXybaBGyr-2142" value="" style="endArrow=none;html=1;rounded=0;entryX=0;entryY=0.5;entryDx=0;entryDy=0;entryPerimeter=0;exitX=1;exitY=0.5;exitDx=0;exitDy=0;exitPerimeter=0;" edge="1" parent="1" source="2138" target="TevSWxWTR0fjXybaBGyr-2139">
          <mxGeometry width="50" height="50" relative="1" as="geometry">
            <mxPoint x="1200" y="700" as="sourcePoint" />
            <mxPoint x="1250" y="650" as="targetPoint" />
          </mxGeometry>
        </mxCell>
        <mxCell id="TevSWxWTR0fjXybaBGyr-2143" value="" style="shape=mxgraph.cisco.people.androgenous_person;sketch=0;html=1;pointerEvents=1;dashed=0;fillColor=#036897;strokeColor=#ffffff;strokeWidth=2;verticalLabelPosition=bottom;verticalAlign=top;align=center;outlineConnect=0;" vertex="1" parent="1">
          <mxGeometry x="950.5" y="1130" width="69" height="82" as="geometry" />
        </mxCell>
        <mxCell id="TevSWxWTR0fjXybaBGyr-2144" value="Охранник&lt;br&gt;Vlan4" style="text;html=1;strokeColor=none;fillColor=none;align=center;verticalAlign=middle;whiteSpace=wrap;rounded=0;fontSize=17;" vertex="1" parent="1">
          <mxGeometry x="940" y="1218.5" width="90" height="30" as="geometry" />
        </mxCell>
        <mxCell id="TevSWxWTR0fjXybaBGyr-2145" value="" style="fillColor=#28A8E0;verticalLabelPosition=bottom;sketch=0;html=1;strokeColor=#ffffff;verticalAlign=top;align=center;points=[[0.145,0.145,0],[0.5,0,0],[0.855,0.145,0],[1,0.5,0],[0.855,0.855,0],[0.5,1,0],[0.145,0.855,0],[0,0.5,0]];pointerEvents=1;shape=mxgraph.cisco_safe.compositeIcon;bgIcon=ellipse;resIcon=mxgraph.cisco_safe.capability.data_loss_prevention;" vertex="1" parent="1">
          <mxGeometry x="940" y="585" width="70" height="70" as="geometry" />
        </mxCell>
        <mxCell id="TevSWxWTR0fjXybaBGyr-2146" value="" style="fillColor=#28A8E0;verticalLabelPosition=bottom;sketch=0;html=1;strokeColor=#ffffff;verticalAlign=top;align=center;points=[[0.145,0.145,0],[0.5,0,0],[0.855,0.145,0],[1,0.5,0],[0.855,0.855,0],[0.5,1,0],[0.145,0.855,0],[0,0.5,0]];pointerEvents=1;shape=mxgraph.cisco_safe.compositeIcon;bgIcon=ellipse;resIcon=mxgraph.cisco_safe.capability.data_loss_prevention;" vertex="1" parent="1">
          <mxGeometry x="1599" y="605.17" width="70" height="70" as="geometry" />
        </mxCell>
        <mxCell id="TevSWxWTR0fjXybaBGyr-2147" value="" style="fillColor=#28A8E0;verticalLabelPosition=bottom;sketch=0;html=1;strokeColor=#ffffff;verticalAlign=top;align=center;points=[[0.145,0.145,0],[0.5,0,0],[0.855,0.145,0],[1,0.5,0],[0.855,0.855,0],[0.5,1,0],[0.145,0.855,0],[0,0.5,0]];pointerEvents=1;shape=mxgraph.cisco_safe.compositeIcon;bgIcon=ellipse;resIcon=mxgraph.cisco_safe.capability.data_loss_prevention;" vertex="1" parent="1">
          <mxGeometry x="1628" y="1036.5" width="70" height="70" as="geometry" />
        </mxCell>
        <mxCell id="TevSWxWTR0fjXybaBGyr-2148" value="" style="verticalLabelPosition=bottom;sketch=0;html=1;fillColor=#282828;strokeColor=none;verticalAlign=top;pointerEvents=1;align=center;shape=mxgraph.cisco_safe.technology_icons.icon10;" vertex="1" parent="1">
          <mxGeometry x="1030" y="594.5" width="50" height="41" as="geometry" />
        </mxCell>
        <mxCell id="TevSWxWTR0fjXybaBGyr-2149" value="" style="verticalLabelPosition=bottom;sketch=0;html=1;fillColor=#282828;strokeColor=none;verticalAlign=top;pointerEvents=1;align=center;shape=mxgraph.cisco_safe.technology_icons.icon10;" vertex="1" parent="1">
          <mxGeometry x="1692" y="891.04" width="50" height="41" as="geometry" />
        </mxCell>
        <mxCell id="TevSWxWTR0fjXybaBGyr-2150" value="" style="verticalLabelPosition=bottom;sketch=0;html=1;fillColor=#282828;strokeColor=none;verticalAlign=top;pointerEvents=1;align=center;shape=mxgraph.cisco_safe.technology_icons.icon10;" vertex="1" parent="1">
          <mxGeometry x="1480" y="645.17" width="50" height="41" as="geometry" />
        </mxCell>
        <mxCell id="TevSWxWTR0fjXybaBGyr-2152" value="" style="shape=mxgraph.cisco.servers.file_server;sketch=0;html=1;pointerEvents=1;dashed=0;fillColor=#036897;strokeColor=#ffffff;strokeWidth=2;verticalLabelPosition=bottom;verticalAlign=top;align=center;outlineConnect=0;" vertex="1" parent="1">
          <mxGeometry x="1080" y="860" width="64" height="84" as="geometry" />
        </mxCell>
        <mxCell id="TevSWxWTR0fjXybaBGyr-2153" value="Сервер хранения видеозаписей с камер" style="text;html=1;strokeColor=none;fillColor=none;align=center;verticalAlign=middle;whiteSpace=wrap;rounded=0;fontSize=17;" vertex="1" parent="1">
          <mxGeometry x="1076" y="968" width="60" height="30" as="geometry" />
        </mxCell>
        <mxCell id="TevSWxWTR0fjXybaBGyr-2155" value="" style="line;strokeWidth=2;direction=south;html=1;fontSize=17;rotation=-45;" vertex="1" parent="1">
          <mxGeometry x="1648" y="770" width="10" height="135" as="geometry" />
        </mxCell>
        <mxCell id="TevSWxWTR0fjXybaBGyr-2156" value="" style="line;strokeWidth=2;direction=south;html=1;fontSize=17;rotation=-75;" vertex="1" parent="1">
          <mxGeometry x="1448" y="614.3399999999999" width="10" height="71.83" as="geometry" />
        </mxCell>
        <mxCell id="TevSWxWTR0fjXybaBGyr-2157" value="" style="line;strokeWidth=2;direction=south;html=1;fontSize=17;rotation=-125;" vertex="1" parent="1">
          <mxGeometry x="1104" y="528.36" width="10" height="95.17" as="geometry" />
        </mxCell>
        <mxCell id="TevSWxWTR0fjXybaBGyr-2158" value="" style="line;strokeWidth=2;direction=south;html=1;fontSize=17;rotation=0;" vertex="1" parent="1">
          <mxGeometry x="1111" y="800" width="10" height="70" as="geometry" />
        </mxCell>
        <mxCell id="TevSWxWTR0fjXybaBGyr-2160" value="Vlan4" style="text;html=1;strokeColor=none;fillColor=none;align=center;verticalAlign=middle;whiteSpace=wrap;rounded=0;fontSize=17;" vertex="1" parent="1">
          <mxGeometry x="1000" y="629.33" width="90" height="30" as="geometry" />
        </mxCell>
        <mxCell id="TevSWxWTR0fjXybaBGyr-2162" value="Vlan4" style="text;html=1;strokeColor=none;fillColor=none;align=center;verticalAlign=middle;whiteSpace=wrap;rounded=0;fontSize=17;" vertex="1" parent="1">
          <mxGeometry x="1449" y="680" width="90" height="30" as="geometry" />
        </mxCell>
        <mxCell id="TevSWxWTR0fjXybaBGyr-2163" value="Vlan4" style="text;html=1;strokeColor=none;fillColor=none;align=center;verticalAlign=middle;whiteSpace=wrap;rounded=0;fontSize=17;" vertex="1" parent="1">
          <mxGeometry x="1698" y="914" width="90" height="30" as="geometry" />
        </mxCell>
        <mxCell id="TevSWxWTR0fjXybaBGyr-2164" value="" style="endArrow=none;html=1;rounded=0;exitX=0.89;exitY=0.24;exitDx=0;exitDy=0;exitPerimeter=0;entryX=0;entryY=0.5;entryDx=0;entryDy=0;entryPerimeter=0;" edge="1" parent="1" source="TevSWxWTR0fjXybaBGyr-2143" target="FBBcUjEUcP34U0jMtz23-2282">
          <mxGeometry width="50" height="50" relative="1" as="geometry">
            <mxPoint x="1190" y="1140" as="sourcePoint" />
            <mxPoint x="1240" y="1090" as="targetPoint" />
            <Array as="points">
              <mxPoint x="920" y="960" />
              <mxPoint x="910" y="730" />
            </Array>
          </mxGeometry>
        </mxCell>
        <mxCell id="TevSWxWTR0fjXybaBGyr-2165" value="" style="shape=mxgraph.cisco.security.firewall;sketch=0;html=1;pointerEvents=1;dashed=0;fillColor=#036897;strokeColor=#ffffff;strokeWidth=2;verticalLabelPosition=bottom;verticalAlign=top;align=center;outlineConnect=0;" vertex="1" parent="1">
          <mxGeometry x="1483.71" y="408.3399999999999" width="54" height="73.33" as="geometry" />
        </mxCell>
      </root>
    </mxGraphModel>
  </diagram>
</mxfile>
